<svg width="44" height="44" viewBox="0 0 44 44" fill="none" xmlns="http://www.w3.org/2000/svg">
<g clip-path="url(#clip0_104_4861)">
<path d="M39.111 18.3334H37.8888V11C37.8888 10.6759 37.76 10.365 37.5308 10.1358C37.3016 9.90657 36.9907 9.7778 36.6666 9.7778H7.33326C7.04385 9.78253 6.76216 9.68438 6.53834 9.50085C6.31452 9.31732 6.1631 9.06031 6.11104 8.77558V8.33558C6.1631 8.05086 6.31452 7.79385 6.53834 7.61031C6.76216 7.42678 7.04385 7.32864 7.33326 7.33336H36.1533C36.4774 7.33336 36.7883 7.20459 37.0175 6.97538C37.2467 6.74617 37.3755 6.43529 37.3755 6.11114C37.3755 5.78698 37.2467 5.47611 37.0175 5.2469C36.7883 5.01769 36.4774 4.88892 36.1533 4.88892H7.33326C6.3608 4.88892 5.42817 5.27522 4.74053 5.96286C4.0529 6.65049 3.66659 7.58312 3.66659 8.55558C3.65801 8.70212 3.65801 8.84904 3.66659 8.99558V34.1367C3.67139 34.7948 3.80576 35.4454 4.06203 36.0516C4.31831 36.6577 4.69147 37.2075 5.1602 37.6694C5.62893 38.1313 6.18406 38.4964 6.79389 38.7438C7.40371 38.9911 8.0563 39.116 8.71437 39.1111H36.6666C36.9907 39.1111 37.3016 38.9824 37.5308 38.7532C37.76 38.5239 37.8888 38.2131 37.8888 37.8889V30.5556H39.111C39.4352 30.5556 39.7461 30.4268 39.9753 30.1976C40.2045 29.9684 40.3333 29.6575 40.3333 29.3334V19.5556C40.3333 19.2314 40.2045 18.9206 39.9753 18.6913C39.7461 18.4621 39.4352 18.3334 39.111 18.3334ZM35.4444 36.6667H8.71437C8.03457 36.6733 7.37968 36.4111 6.89215 35.9373C6.40462 35.4635 6.12389 34.8164 6.11104 34.1367V12.0756C6.50777 12.1906 6.92059 12.2401 7.33326 12.2222H35.4444V18.3334H26.8888C25.268 18.3334 23.7137 18.9772 22.5676 20.1233C21.4216 21.2693 20.7777 22.8237 20.7777 24.4445C20.7777 26.0652 21.4216 27.6196 22.5676 28.7657C23.7137 29.9117 25.268 30.5556 26.8888 30.5556H35.4444V36.6667ZM37.8888 28.1111H26.8888C25.9164 28.1111 24.9837 27.7248 24.2961 27.0372C23.6085 26.3496 23.2221 25.4169 23.2221 24.4445C23.2221 23.472 23.6085 22.5394 24.2961 21.8517C24.9837 21.1641 25.9164 20.7778 26.8888 20.7778H37.8888V28.1111Z" fill="#3E6F00"/>
<path d="M28.1234 26.2778C29.1359 26.2778 29.9567 25.4569 29.9567 24.4444C29.9567 23.4319 29.1359 22.6111 28.1234 22.6111C27.1109 22.6111 26.29 23.4319 26.29 24.4444C26.29 25.4569 27.1109 26.2778 28.1234 26.2778Z" fill="white"/>
</g>
<defs>
<clipPath id="clip0_104_4861">
<rect width="44" height="44" fill="white"/>
</clipPath>
</defs>
</svg>
