<svg width="44" height="44" viewBox="0 0 44 44" fill="none" xmlns="http://www.w3.org/2000/svg">
<path d="M8.8002 8.7999C8.8002 7.63295 9.26377 6.51379 10.0889 5.68863C10.9141 4.86347 12.0332 4.3999 13.2002 4.3999H21.0894C21.9643 4.40067 22.8031 4.74886 23.4214 5.3679L32.0344 13.9787C32.6526 14.5973 33 15.4361 33.0002 16.3107V30.7999C33.0002 31.9669 32.5366 33.086 31.7115 33.9112C30.8863 34.7363 29.7671 35.1999 28.6002 35.1999H23.8262C23.5384 34.3883 23.0945 33.6409 22.5194 32.9999H28.6002C29.1837 32.9999 29.7432 32.7681 30.1558 32.3555C30.5684 31.943 30.8002 31.3834 30.8002 30.7999V17.5999H23.1002C22.225 17.5999 21.3856 17.2522 20.7667 16.6334C20.1479 16.0145 19.8002 15.1751 19.8002 14.2999V6.5999H13.2002C12.6167 6.5999 12.0571 6.83169 11.6446 7.24427C11.232 7.65685 11.0002 8.21643 11.0002 8.7999V21.4807C10.359 20.9064 9.61163 20.4632 8.8002 20.1761V8.7999ZM22.0002 7.0553V14.2999C22.0002 14.5916 22.1161 14.8714 22.3224 15.0777C22.5287 15.284 22.8085 15.3999 23.1002 15.3999H30.3448L22.0002 7.0553ZM17.6002 32.9999C18.1894 32.981 18.7764 33.0806 19.3264 33.293C19.8763 33.5053 20.378 33.826 20.8016 34.236C21.2252 34.646 21.5621 35.137 21.7923 35.6797C22.0224 36.2224 22.1412 36.8059 22.1415 37.3954C22.1418 37.985 22.0236 38.5685 21.794 39.1115C21.5644 39.6545 21.228 40.1457 20.8048 40.5562C20.3816 40.9666 19.8802 41.2878 19.3305 41.5007C18.7808 41.7136 18.1938 41.8138 17.6046 41.7955C16.4623 41.7599 15.3786 41.2813 14.583 40.4609C13.7873 39.6405 13.3421 38.5427 13.3415 37.3998C13.3409 36.257 13.7851 35.1587 14.5799 34.3375C15.3747 33.5163 16.4579 33.0366 17.6002 32.9999ZM15.4002 37.3999C15.4002 37.9822 15.6311 38.5408 16.0422 38.9532C16.4534 39.3656 17.0113 39.5982 17.5936 39.5999H17.6068C18.0416 39.5986 18.4663 39.4685 18.8272 39.2259C19.1882 38.9834 19.4691 38.6394 19.6346 38.2372C19.8001 37.8351 19.8427 37.393 19.7571 36.9667C19.6715 36.5403 19.4614 36.149 19.1535 35.8419C18.8456 35.5349 18.4536 35.3261 18.027 35.2417C17.6004 35.1573 17.1584 35.2013 16.7568 35.368C16.3552 35.5347 16.012 35.8167 15.7705 36.1783C15.5291 36.54 15.4002 36.9651 15.4002 37.3999ZM24.2002 37.3999C24.2002 38.1699 24.0682 38.9113 23.8262 39.5999H28.7322C31.0311 39.5999 33.2358 38.6867 34.8614 37.0611C36.487 35.4355 37.4002 33.2308 37.4002 30.9319V19.7999C37.4002 19.2164 37.1684 18.6568 36.7558 18.2443C36.3433 17.8317 35.7837 17.5999 35.2002 17.5999V30.7999C35.2002 32.5503 34.5048 34.2291 33.2671 35.4668C32.0294 36.7045 30.3506 37.3999 28.6002 37.3999H24.2002ZM6.279 39.2787C6.07244 39.4852 5.7923 39.6013 5.5002 39.6013C5.20809 39.6013 4.92795 39.4852 4.7214 39.2787C4.51484 39.0721 4.39881 38.792 4.39881 38.4999C4.39881 38.2078 4.51484 37.9277 4.7214 37.7211L17.9214 24.5211C18.1279 24.3146 18.4081 24.1985 18.7002 24.1985C18.9923 24.1985 19.2724 24.3146 19.479 24.5211C19.6855 24.7277 19.8016 25.0078 19.8016 25.2999C19.8016 25.592 19.6855 25.8722 19.479 26.0787L6.279 39.2787ZM11.0002 26.3999C11.0002 27.5669 10.5366 28.686 9.71147 29.5112C8.88631 30.3363 7.76715 30.7999 6.6002 30.7999C5.43324 30.7999 4.31409 30.3363 3.48893 29.5112C2.66377 28.686 2.2002 27.5669 2.2002 26.3999C2.2002 25.2329 2.66377 24.1138 3.48893 23.2886C4.31409 22.4635 5.43324 21.9999 6.6002 21.9999C7.76715 21.9999 8.88631 22.4635 9.71147 23.2886C10.5366 24.1138 11.0002 25.2329 11.0002 26.3999ZM8.8002 26.3999C8.8002 25.8164 8.56841 25.2568 8.15583 24.8443C7.74325 24.4317 7.18367 24.1999 6.6002 24.1999C6.01672 24.1999 5.45714 24.4317 5.04456 24.8443C4.63198 25.2568 4.4002 25.8164 4.4002 26.3999C4.4002 26.9834 4.63198 27.543 5.04456 27.9555C5.45714 28.3681 6.01672 28.5999 6.6002 28.5999C7.18367 28.5999 7.74325 28.3681 8.15583 27.9555C8.56841 27.543 8.8002 26.9834 8.8002 26.3999Z" fill="#3E6F00"/>
</svg>
