<svg width="44" height="44" viewBox="0 0 44 44" fill="none" xmlns="http://www.w3.org/2000/svg">
<path d="M2.75 13.0625C2.75 11.4215 3.4019 9.84766 4.56228 8.68728C5.72266 7.5269 7.29647 6.875 8.9375 6.875H35.0625C36.7035 6.875 38.2773 7.5269 39.4377 8.68728C40.5981 9.84766 41.25 11.4215 41.25 13.0625V30.9375C41.25 32.5785 40.5981 34.1523 39.4377 35.3127C38.2773 36.4731 36.7035 37.125 35.0625 37.125H8.9375C7.29647 37.125 5.72266 36.4731 4.56228 35.3127C3.4019 34.1523 2.75 32.5785 2.75 30.9375V13.0625ZM8.9375 9.625C8.02582 9.625 7.15148 9.98716 6.50682 10.6318C5.86216 11.2765 5.5 12.1508 5.5 13.0625V15.125H38.5V13.0625C38.5 12.1508 38.1378 11.2765 37.4932 10.6318C36.8485 9.98716 35.9742 9.625 35.0625 9.625H8.9375ZM5.5 30.9375C5.5 31.8492 5.86216 32.7235 6.50682 33.3682C7.15148 34.0128 8.02582 34.375 8.9375 34.375H35.0625C35.9742 34.375 36.8485 34.0128 37.4932 33.3682C38.1378 32.7235 38.5 31.8492 38.5 30.9375V17.875H5.5V30.9375ZM28.875 26.125H33C33.3647 26.125 33.7144 26.2699 33.9723 26.5277C34.2301 26.7856 34.375 27.1353 34.375 27.5C34.375 27.8647 34.2301 28.2144 33.9723 28.4723C33.7144 28.7301 33.3647 28.875 33 28.875H28.875C28.5103 28.875 28.1606 28.7301 27.9027 28.4723C27.6449 28.2144 27.5 27.8647 27.5 27.5C27.5 27.1353 27.6449 26.7856 27.9027 26.5277C28.1606 26.2699 28.5103 26.125 28.875 26.125Z" fill="#3E6F00"/>
</svg>
