<svg width="44" height="44" viewBox="0 0 44 44" fill="none" xmlns="http://www.w3.org/2000/svg">
<path d="M8.8002 8.7999C8.8002 7.63295 9.26377 6.51379 10.0889 5.68863C10.9141 4.86347 12.0332 4.3999 13.2002 4.3999H23.2894C24.1643 4.40067 25.0031 4.74886 25.6214 5.3679L34.2344 13.9787C34.8526 14.5973 35.2 15.4361 35.2002 16.3107V35.1999C35.2002 36.3669 34.7366 37.486 33.9115 38.3112C33.0863 39.1363 31.9671 39.5999 30.8002 39.5999H23.8262C24.0682 38.9113 24.2002 38.1699 24.2002 37.3999H30.8002C31.3837 37.3999 31.9433 37.1681 32.3558 36.7555C32.7684 36.343 33.0002 35.7834 33.0002 35.1999V17.5999H25.3002C24.425 17.5999 23.5856 17.2522 22.9667 16.6334C22.3479 16.0145 22.0002 15.1751 22.0002 14.2999V6.5999H13.2002C12.6167 6.5999 12.0571 6.83169 11.6446 7.24427C11.232 7.65685 11.0002 8.21643 11.0002 8.7999V21.4807C10.359 20.9064 9.61163 20.4632 8.8002 20.1761V8.7999ZM25.3002 15.3999H32.5448L24.2002 7.0553V14.2999C24.2002 14.5916 24.3161 14.8714 24.5224 15.0777C24.7287 15.284 25.0085 15.3999 25.3002 15.3999ZM11.0002 26.3999C11.0002 27.5669 10.5366 28.686 9.71147 29.5112C8.88631 30.3363 7.76715 30.7999 6.6002 30.7999C5.43324 30.7999 4.31409 30.3363 3.48893 29.5112C2.66377 28.686 2.2002 27.5669 2.2002 26.3999C2.2002 25.233 2.66377 24.1138 3.48893 23.2886C4.31409 22.4635 5.43324 21.9999 6.6002 21.9999C7.76715 21.9999 8.88631 22.4635 9.71147 23.2886C10.5366 24.1138 11.0002 25.233 11.0002 26.3999ZM8.8002 26.3999C8.8002 25.8164 8.56841 25.2568 8.15583 24.8443C7.74325 24.4317 7.18367 24.1999 6.6002 24.1999C6.01672 24.1999 5.45714 24.4317 5.04456 24.8443C4.63198 25.2568 4.4002 25.8164 4.4002 26.3999C4.4002 26.9834 4.63198 27.543 5.04456 27.9555C5.45714 28.3681 6.01672 28.5999 6.6002 28.5999C7.18367 28.5999 7.74325 28.3681 8.15583 27.9555C8.56841 27.543 8.8002 26.9834 8.8002 26.3999ZM22.0002 37.3999C22.0002 38.5669 21.5366 39.686 20.7115 40.5112C19.8863 41.3363 18.7671 41.7999 17.6002 41.7999C16.4332 41.7999 15.3141 41.3363 14.4889 40.5112C13.6638 39.686 13.2002 38.5669 13.2002 37.3999C13.2002 36.233 13.6638 35.1138 14.4889 34.2886C15.3141 33.4635 16.4332 32.9999 17.6002 32.9999C18.7671 32.9999 19.8863 33.4635 20.7115 34.2886C21.5366 35.1138 22.0002 36.233 22.0002 37.3999ZM19.8002 37.3999C19.8002 36.8164 19.5684 36.2568 19.1558 35.8443C18.7432 35.4317 18.1837 35.1999 17.6002 35.1999C17.0167 35.1999 16.4571 35.4317 16.0446 35.8443C15.632 36.2568 15.4002 36.8164 15.4002 37.3999C15.4002 37.9834 15.632 38.543 16.0446 38.9555C16.4571 39.3681 17.0167 39.5999 17.6002 39.5999C18.1837 39.5999 18.7432 39.3681 19.1558 38.9555C19.5684 38.543 19.8002 37.9834 19.8002 37.3999ZM19.479 24.5211C19.5814 24.6233 19.6627 24.7447 19.7182 24.8783C19.7736 25.0119 19.8022 25.1552 19.8022 25.2999C19.8022 25.4446 19.7736 25.5879 19.7182 25.7215C19.6627 25.8551 19.5814 25.9765 19.479 26.0787L6.279 39.2787C6.07244 39.4853 5.7923 39.6013 5.5002 39.6013C5.20809 39.6013 4.92795 39.4853 4.7214 39.2787C4.51484 39.0722 4.39881 38.792 4.39881 38.4999C4.39881 38.2078 4.51484 37.9277 4.7214 37.7211L17.9214 24.5211C18.0236 24.4187 18.145 24.3374 18.2786 24.2819C18.4122 24.2265 18.5555 24.1979 18.7002 24.1979C18.8449 24.1979 18.9881 24.2265 19.1218 24.2819C19.2554 24.3374 19.3768 24.4187 19.479 24.5211Z" fill="#3E6F00"/>
</svg>
