<svg width="1000" height="272" viewBox="0 0 1000 272" fill="none" xmlns="http://www.w3.org/2000/svg">
<g clip-path="url(#clip0_4_167)">
<path d="M308.607 18.8036H306.608V252.901H308.607V18.8036Z" fill="#3E6F00"/>
<path d="M135.614 271.456C210.511 271.456 271.228 210.739 271.228 135.842C271.228 60.9443 210.511 0.227905 135.614 0.227905C60.7164 0.227905 0 60.9443 0 135.842C0 210.739 60.7164 271.456 135.614 271.456Z" fill="#3E6F00"/>
<path d="M135.614 264.877C206.878 264.877 264.649 207.106 264.649 135.842C264.649 64.5776 206.878 6.80658 135.614 6.80658C64.3497 6.80658 6.57867 64.5776 6.57867 135.842C6.57867 207.106 64.3497 264.877 135.614 264.877Z" fill="white"/>
<path d="M135.614 260.453C204.435 260.453 260.225 204.663 260.225 135.842C260.225 67.0208 204.435 11.2303 135.614 11.2303C66.7929 11.2303 11.0024 67.0208 11.0024 135.842C11.0024 204.663 66.7929 260.453 135.614 260.453Z" fill="#3E6F00"/>
<path d="M233.082 135.427C237.558 127.113 239.938 117.831 240.013 108.388C239.945 98.6376 237.455 89.0574 232.766 80.5089C228.076 71.9604 221.335 64.7118 213.149 59.4153C204.957 54.1915 195.569 51.1396 185.871 50.547C180.264 41.5033 172.186 34.2526 162.592 29.6506C136.318 17.0942 103.86 26.2318 88.3822 50.3709C76.2599 50.4574 64.4738 54.3656 54.7014 61.5391C43.489 69.9467 35.6545 82.0883 32.6144 95.7691C29.5742 109.45 31.5289 123.767 38.1252 136.132C33.4008 144.768 31.0185 154.49 31.215 164.332C31.7952 195.309 57.8095 221.023 88.3407 221.406C93.9564 230.33 101.984 237.482 111.496 242.033C137.8 254.61 170.289 245.442 185.736 221.261C196.548 220.687 206.971 217.039 215.781 210.745C227.283 202.404 235.373 190.178 238.554 176.331C241.735 162.483 239.791 147.952 233.082 135.427Z" fill="white"/>
<path d="M219.728 110.325C222.204 97.3928 219.713 84.0027 212.751 72.8264C205.79 61.6501 194.871 53.5095 182.172 50.029C173.857 47.6956 165.091 47.4677 156.666 49.3659C149.467 43.2239 140.699 39.2095 131.346 37.773C105.497 33.8361 79.7315 50.0704 72.3861 74.8104C62.1122 78.1582 53.1169 84.5855 46.6205 93.2203C39.1723 103.412 35.5674 115.908 36.4433 128.501C37.3192 141.093 42.6194 152.97 51.4069 162.032C49.74 170.593 50.2747 179.438 52.9609 187.736C61.6116 214.434 90.2573 229.922 117.194 222.504C124.372 228.542 133.075 232.485 142.348 233.9C150.104 235.063 158.022 234.479 165.524 232.191C182.266 227.104 196.252 213.999 201.328 196.78C210.351 193.39 218.246 187.544 224.12 179.903C231.861 169.709 235.676 157.071 234.87 144.297C234.063 131.523 228.689 119.464 219.728 110.325ZM218.692 155.671C215.145 162.156 210.08 167.684 203.929 171.781L203.452 172.102V172.682C203.479 183.791 199.471 194.531 192.172 202.904C184.873 211.278 174.781 216.715 163.773 218.205C155.396 219.3 146.88 217.977 139.23 214.392L138.732 214.164L138.256 214.434C132.008 217.913 125.006 219.816 117.857 219.976L117.712 219.852L117.256 219.987C109.921 220.093 102.665 218.459 96.0842 215.217C89.5035 211.975 83.7856 207.219 79.3999 201.339C74.5156 194.683 71.6135 186.781 71.029 178.546V177.966L70.511 177.676C63.6755 173.894 57.958 168.376 53.9348 161.68L54.0384 161.162L53.5825 160.706C53.3961 160.52 53.2199 160.323 53.0438 160.136C49.4102 153.606 47.4311 146.286 47.2794 138.815C47.1277 131.343 48.808 123.949 52.1736 117.277C55.665 110.442 60.874 104.633 67.289 100.421L67.7759 100.11V99.5193C67.7735 91.5138 69.8895 83.6502 73.9091 76.727L74.3649 76.582L74.541 75.9604C74.6032 75.7532 74.6757 75.5563 74.7379 75.3491C78.2239 69.7268 82.8871 64.9269 88.4065 61.2801C93.9259 57.6334 100.17 55.2263 106.709 54.2248C116.089 52.9002 125.648 54.5526 134.039 58.949L134.547 59.208L135.054 58.9283C148.678 51.3136 165.347 51.7902 178.743 58.9283C184.697 62.0945 189.866 66.5551 193.869 71.9821C198.778 78.6713 201.682 86.62 202.24 94.8987V95.4477L202.706 95.7378C208.614 99.3821 213.597 104.347 217.262 110.242C217.262 110.242 217.262 110.242 217.262 110.315L217.138 110.946L217.594 111.402C217.904 111.713 218.194 112.024 218.495 112.345C222.101 118.989 224.008 126.421 224.046 133.981C224.084 141.54 222.252 148.992 218.712 155.671H218.692ZM181.478 52.2875C193.166 55.4862 203.29 62.8281 209.962 72.9431C216.634 83.0581 219.398 95.2551 217.739 107.258C214.158 102.086 209.579 97.6832 204.27 94.3081C203.601 85.8145 200.572 77.6766 195.526 70.8114C191.203 65.0336 185.645 60.2935 179.258 56.9366C172.87 53.5796 165.814 51.6905 158.603 51.4069C166.2 49.9169 174.039 50.2184 181.499 52.2875H181.478ZM108.812 41.7409C115.974 39.5498 123.535 38.9905 130.942 40.104C139.973 41.499 148.427 45.4171 155.329 51.4069C148.037 51.5587 140.886 53.4406 134.464 56.8977C125.132 52.1153 114.465 50.5993 104.17 52.5919C93.8744 54.5845 84.544 59.9707 77.6698 67.8898C80.8194 61.6457 85.2063 56.1075 90.5636 51.6122C95.921 47.1168 102.137 43.7583 108.833 41.7409H108.812ZM48.5061 94.5775C54.2045 86.9936 61.9397 81.1841 70.8114 77.8252C67.4376 84.4011 65.6427 91.6729 65.5692 99.0634C59.0653 103.454 53.7795 109.42 50.2051 116.406C47.2867 122.181 45.5725 128.489 45.1664 134.947C44.7604 141.404 45.671 147.877 47.843 153.972C41.7655 145.238 38.5648 134.826 38.6874 124.186C38.81 113.547 42.2496 103.21 48.5268 94.6189L48.5061 94.5775ZM55.1987 186.948C52.8995 179.825 52.2547 172.271 53.3132 164.861C57.304 170.83 62.623 175.795 68.8533 179.365C69.5874 187.794 72.6347 195.857 77.6594 202.665C81.8521 208.346 87.265 213.016 93.5001 216.33C98.4858 218.983 103.889 220.763 109.475 221.593C97.8308 222.95 86.0744 220.249 76.1901 213.946C66.3058 207.642 58.8989 198.121 55.2194 186.99L55.1987 186.948ZM142.638 231.497C134.502 230.246 126.819 226.945 120.312 221.903C126.789 221.434 133.092 219.594 138.805 216.506C146.702 220.088 155.444 221.391 164.042 220.266C171.006 219.318 177.676 216.853 183.584 213.045C189.491 209.238 194.491 204.181 198.23 198.23C190.481 220.743 166.632 235.237 142.659 231.569L142.638 231.497ZM222.131 178.432C216.524 185.72 208.987 191.29 200.375 194.511C203.767 187.906 205.56 180.595 205.607 173.169C214.223 167.336 220.657 158.804 223.895 148.915C227.134 139.026 226.995 128.341 223.499 118.54C229.637 127.396 232.814 137.969 232.572 148.742C232.33 159.514 228.682 169.933 222.152 178.505L222.131 178.432Z" fill="#3E6F00"/>
<path d="M135.624 123.389C128.981 118.942 124.273 112.139 122.452 104.354C120.631 96.5696 121.832 88.3841 125.813 81.4513L125.938 81.2441L133.387 68.3353L135.624 64.4607L137.862 68.3353L145.301 81.2441L145.425 81.4513C149.427 88.3866 150.642 96.5848 148.822 104.383C147.002 112.18 142.283 118.994 135.624 123.441V123.389ZM124.829 129.605C117.646 133.158 109.38 133.845 101.709 131.526C94.0379 129.208 87.5362 124.058 83.5233 117.121L83.4093 116.904L75.95 103.995L73.7537 100.099H93.3757C101.386 100.094 109.098 103.141 114.941 108.62C120.785 114.1 124.32 121.6 124.829 129.595V129.605ZM124.829 142.037C124.321 150.036 120.787 157.542 114.945 163.03C109.103 168.518 101.391 171.577 93.3757 171.584H73.7537L75.9915 167.699L83.4507 154.801L83.5647 154.583C87.57 147.65 94.0635 142.5 101.727 140.18C109.391 137.859 117.65 138.542 124.829 142.089V142.037ZM135.624 148.253C142.278 152.705 146.991 159.518 148.811 167.314C150.63 175.11 149.42 183.306 145.425 190.243L145.301 190.45L137.862 203.359L135.624 207.233L133.387 203.359L125.938 190.45L125.813 190.243C121.809 183.307 120.595 175.107 122.417 167.308C124.239 159.51 128.961 152.697 135.624 148.253ZM146.409 142.037C153.589 138.498 161.846 137.819 169.508 140.139C177.169 142.459 183.663 147.604 187.674 154.532L187.788 154.749L195.247 167.647L197.485 171.584H177.862C169.853 171.593 162.141 168.548 156.298 163.07C150.454 157.592 146.918 150.093 146.409 142.099V142.037ZM146.409 129.605C146.932 121.615 150.472 114.122 156.312 108.644C162.152 103.166 169.855 100.111 177.862 100.099H197.485L195.247 103.974L187.788 116.883L187.674 117.1C183.668 124.034 177.175 129.184 169.511 131.504C161.847 133.825 153.588 133.142 146.409 129.595V129.605ZM135.624 41.1918L115.764 75.5874C112.858 80.6201 110.997 86.1876 110.294 91.9564C104.943 89.6833 99.1891 88.5134 93.3757 88.5169H53.6654L73.5154 122.892C76.4113 127.917 80.2865 132.31 84.9115 135.811C80.2865 139.311 76.4113 143.704 73.5154 148.73L53.6654 183.125H93.3757C99.1891 183.129 104.943 181.959 110.294 179.686C110.997 185.455 112.858 191.022 115.764 196.055L135.624 230.45L155.474 196.055C158.385 191.024 160.246 185.456 160.944 179.686C166.295 181.959 172.049 183.129 177.862 183.125H217.573L197.723 148.792C194.812 143.762 190.919 139.368 186.275 135.873C190.925 132.36 194.819 127.945 197.723 122.892L217.573 88.4961H177.862C172.049 88.4927 166.295 89.6626 160.944 91.9357C160.246 86.1658 158.385 80.5973 155.474 75.5667L135.624 41.1918Z" fill="#3E6F00"/>
<path d="M889.25 83.32H939.33C941.037 83.32 942.423 83.9067 943.49 85.08C944.557 86.2533 945.09 87.8 945.09 89.72V199H928.29C924.663 199 922.263 198.413 921.09 197.24C920.023 196.067 919.49 193.613 919.49 189.88V103.32H893.89C890.797 103.32 889.25 100.76 889.25 95.64V83.32ZM951.49 83.32H977.09C980.183 83.32 981.73 85.88 981.73 91V103.32H951.49V83.32Z" fill="#3E6F00"/>
<path d="M823.147 199H806.348C802.721 199 800.321 198.413 799.147 197.24C798.081 196.067 797.547 193.613 797.547 189.88V89.72C797.547 87.8 798.081 86.2533 799.147 85.08C800.214 83.9067 801.601 83.32 803.307 83.32H823.147V199ZM829.548 83.32H849.867C856.054 83.32 860.907 83.8 864.427 84.76C868.054 85.72 870.774 87.64 872.588 90.52C874.401 93.2933 875.521 96.44 875.948 99.96C876.481 103.373 876.747 108.227 876.747 114.52C876.747 120.813 876.481 125.613 875.948 128.92C875.521 132.227 874.401 135.32 872.588 138.2C870.881 141.08 868.161 143.107 864.427 144.28C860.801 145.453 855.947 146.04 849.867 146.04H829.548V130.84H841.388C844.161 130.84 845.921 130.467 846.668 129.72C847.521 128.973 847.948 127.8 847.948 126.2V103.32C847.948 101.613 847.521 100.387 846.668 99.64C845.921 98.8933 844.161 98.52 841.388 98.52H829.548V83.32ZM844.908 151H864.747C867.947 151 870.241 151.907 871.628 153.72C873.014 155.427 873.708 158.253 873.708 162.2V199H850.668C848.961 199 847.574 198.413 846.508 197.24C845.441 196.067 844.908 194.52 844.908 192.6V151Z" fill="#3E6F00"/>
<path d="M742.775 98.52H727.895C726.188 98.52 725.335 98.9467 725.335 99.8V199H708.535C704.908 199 702.508 198.413 701.335 197.24C700.268 196.067 699.735 193.613 699.735 189.88V92.44C699.735 88.7067 700.268 86.2533 701.335 85.08C702.508 83.9067 704.908 83.32 708.535 83.32H742.775V98.52ZM749.175 83.32H765.975C769.602 83.32 771.948 83.9067 773.015 85.08C774.188 86.2533 774.775 88.7067 774.775 92.44V189.72C774.775 193.453 774.188 195.96 773.015 197.24C771.842 198.413 769.495 199 765.975 199H749.175V145.4H731.735V130.2H749.175V83.32Z" fill="#3E6F00"/>
<path d="M632.679 199H615.879C612.252 199 609.852 198.413 608.679 197.24C607.612 196.067 607.079 193.613 607.079 189.88V92.44C607.079 88.7067 607.612 86.2533 608.679 85.08C609.852 83.9067 612.252 83.32 615.879 83.32H632.679V199ZM682.119 176.6V190.2C682.119 193.827 681.532 196.227 680.359 197.4C679.185 198.467 676.732 199 672.999 199H639.079V176.6H682.119ZM672.519 129.4V139C672.519 142.84 672.145 145.293 671.399 146.36C670.652 147.32 668.519 147.8 664.999 147.8H639.079V129.4H672.519ZM680.519 83.32V96.92C680.519 100.547 679.932 102.947 678.759 104.12C677.585 105.187 675.132 105.72 671.399 105.72H639.079V83.32H680.519Z" fill="#3E6F00"/>
<path d="M537.099 199H535.179C530.912 199 527.339 198.68 524.459 198.04C521.685 197.4 519.232 196.12 517.099 194.2C515.072 192.173 513.472 189.933 512.299 187.48C511.232 185.027 510.379 181.347 509.739 176.44C508.779 169.08 508.299 159.213 508.299 146.84C508.299 134.36 508.352 125.56 508.459 120.44C508.672 115.32 509.099 110.36 509.739 105.56C510.379 100.653 511.232 97.0267 512.299 94.68C513.472 92.2267 515.072 90.04 517.099 88.12C519.232 86.0933 521.685 84.8133 524.459 84.28C527.339 83.64 530.912 83.32 535.179 83.32H537.099V199ZM543.499 83.32H563.819C571.605 83.32 577.472 84.6533 581.419 87.32C585.472 89.9867 587.499 94.6267 587.499 101.24V115.64C587.499 117.88 586.752 119 585.259 119H565.099C563.605 119 562.699 118.787 562.379 118.36C562.059 117.933 561.899 117.027 561.899 115.64V103.16C561.899 101.453 561.632 100.28 561.099 99.64C560.672 98.8933 559.499 98.52 557.579 98.52H543.499V83.32ZM565.099 163.32H585.259C586.752 163.32 587.499 164.44 587.499 166.68V181.08C587.499 187.693 585.472 192.333 581.419 195C577.472 197.667 571.605 199 563.819 199H543.499V183.8H557.579C559.499 183.8 560.672 183.48 561.099 182.84C561.632 182.093 561.899 180.867 561.899 179.16V166.68C561.899 165.293 562.059 164.387 562.379 163.96C562.699 163.533 563.605 163.32 565.099 163.32Z" fill="#3E6F00"/>
<path d="M486.741 199H469.941C466.315 199 463.915 198.413 462.741 197.24C461.675 196.067 461.141 193.613 461.141 189.88V92.44C461.141 88.7067 461.675 86.2533 462.741 85.08C463.915 83.9067 466.315 83.32 469.941 83.32H486.741V199Z" fill="#3E6F00"/>
<path d="M438.2 83.32V189.88C438.2 193.613 437.613 196.067 436.44 197.24C435.373 198.413 433.027 199 429.4 199H406.68C400.387 199 396.227 198.04 394.2 196.12C392.28 194.2 390.573 189.24 389.08 181.24C386.093 165.453 381.773 139.96 376.12 104.76C375.693 102.093 375.053 100.387 374.2 99.64C373.453 98.8933 372.12 98.4667 370.2 98.36H350.52V83.32H385.24C387.907 83.32 390.04 83.64 391.64 84.28C393.24 84.92 394.52 86.3067 395.48 88.44C396.547 90.4667 397.24 92.44 397.56 94.36C397.987 96.28 398.413 98.52 398.84 101.08C399.373 104.173 400.12 108.707 401.08 114.68C402.893 126.733 405.72 143.747 409.56 165.72C411.053 175.107 412.067 180.387 412.6 181.56C413.24 182.627 414.307 183.267 415.8 183.48V89.72C415.8 87.8 416.333 86.2533 417.4 85.08C418.467 83.9067 419.853 83.32 421.56 83.32H438.2ZM350.52 103.96H367.16C368.867 103.96 370.253 104.547 371.32 105.72C372.387 106.893 372.92 108.44 372.92 110.36V189.88C372.92 193.507 372.44 195.96 371.48 197.24C370.52 198.413 368.6 199 365.72 199H350.52V103.96Z" fill="#3E6F00"/>
</g>
<defs>
<clipPath id="clip0_4_167">
<rect width="1000" height="271.228" fill="white" transform="translate(0 0.227905)"/>
</clipPath>
</defs>
</svg>
