<svg width="392" height="316" viewBox="0 0 392 316" fill="none" xmlns="http://www.w3.org/2000/svg">
<path opacity="0.1" d="M436.803 311.712C436.803 314.878 425.87 317.845 406.792 320.395H45.9425C29.8876 320.429 14.11 316.221 0.213725 308.198L0 308.077C5.48263 306.084 15.3792 304.225 28.8488 302.547L29.4528 302.472C35.493 301.735 42.2441 301.035 49.6224 300.372C49.8083 300.372 49.9987 300.344 50.1846 300.321C56.0389 299.802 62.2665 299.315 68.8673 298.861C69.0764 298.861 69.2809 298.824 69.4899 298.815C72.0361 298.632 74.6349 298.459 77.2864 298.295L78.3086 298.23C97.614 297.034 119.558 296.079 143.357 295.449H143.385C146.718 295.356 150.086 295.274 153.49 295.203C157.275 295.113 161.107 295.035 164.985 294.967C167.945 294.902 170.942 294.855 173.948 294.809H174.018C187.58 294.605 201.593 294.503 215.923 294.503C251.355 294.503 284.846 295.147 314.521 296.306H314.605C319.168 296.483 323.647 296.677 328.014 296.877L331.731 297.053C336.66 297.288 341.461 297.54 346.135 297.809C401.1 300.929 436.803 305.996 436.803 311.712Z" fill="#3E6F00"/>
<g opacity="0.2">
<path d="M258.134 292.375C258.119 292.875 258.062 293.373 257.962 293.863C254.728 293.35 251.476 292.887 248.205 292.473C248.205 292.343 248.205 292.208 248.205 292.074C248.235 290.684 248.636 289.327 249.367 288.142C250.324 286.631 251.778 285.685 253.381 285.736C254.984 285.787 256.373 286.821 257.233 288.384C257.883 289.611 258.194 290.988 258.134 292.375Z" fill="#3F3D56"/>
<path d="M258.401 284.453C258.514 280.868 256.381 277.891 253.637 277.805C250.893 277.718 248.576 280.554 248.462 284.14C248.349 287.725 250.482 290.702 253.226 290.788C255.97 290.875 258.287 288.038 258.401 284.453Z" fill="#3F3D56"/>
<path d="M258.655 276.516C258.769 272.931 256.636 269.954 253.892 269.867C251.148 269.781 248.831 272.617 248.717 276.203C248.604 279.788 250.736 282.765 253.481 282.851C256.225 282.938 258.542 280.101 258.655 276.516Z" fill="#3F3D56"/>
<path d="M258.904 268.579C259.018 264.994 256.885 262.017 254.141 261.93C251.397 261.844 249.08 264.68 248.966 268.266C248.853 271.851 250.985 274.828 253.73 274.914C256.474 275.001 258.791 272.164 258.904 268.579Z" fill="#3F3D56"/>
<path d="M259.152 260.642C259.266 257.056 257.133 254.08 254.389 253.993C251.645 253.907 249.328 256.743 249.214 260.328C249.101 263.914 251.233 266.89 253.978 266.977C256.722 267.063 259.039 264.227 259.152 260.642Z" fill="#3F3D56"/>
<path d="M237.272 205.57C236.618 204.686 236.028 203.757 235.507 202.789L248.637 201.06L234.503 200.721C233.242 197.736 232.604 194.525 232.629 191.286C232.654 188.046 233.34 184.846 234.647 181.88L253.288 192.288L236.213 178.918C237.936 176.138 240.214 173.742 242.906 171.881C245.598 170.019 248.646 168.731 251.859 168.098C255.073 167.464 258.383 167.498 261.582 168.198C264.781 168.898 267.802 170.249 270.455 172.166C273.107 174.083 275.336 176.526 277 179.341C278.664 182.155 279.729 185.283 280.128 188.527C280.526 191.77 280.25 195.062 279.317 198.194C278.384 201.327 276.813 204.234 274.703 206.734C275.721 208.109 276.585 209.59 277.282 211.152L260.048 219.404L278.322 213.92C279.473 217.709 279.659 221.724 278.862 225.602C278.065 229.481 276.312 233.099 273.76 236.131C276.413 239.723 277.999 243.987 278.338 248.436C278.676 252.885 277.753 257.339 275.674 261.289C273.595 265.24 270.444 268.526 266.581 270.774C262.718 273.021 258.299 274.138 253.829 273.998C249.36 273.857 245.02 272.464 241.307 269.979C237.593 267.493 234.656 264.015 232.83 259.942C231.004 255.868 230.364 251.365 230.983 246.946C231.602 242.527 233.455 238.371 236.329 234.953C233.159 230.661 231.528 225.43 231.696 220.101C231.865 214.772 233.824 209.655 237.258 205.57H237.272Z" fill="#3E6F00"/>
<path opacity="0.1" d="M279.335 221.602C279.173 226.934 277.208 232.054 273.76 236.131C276.413 239.723 277.999 243.987 278.338 248.436C278.676 252.885 277.753 257.339 275.674 261.289C273.595 265.24 270.444 268.526 266.581 270.774C262.718 273.021 258.299 274.138 253.829 273.998C249.36 273.857 245.02 272.464 241.307 269.979C237.593 267.493 234.656 264.015 232.83 259.942C231.004 255.868 230.364 251.365 230.983 246.946C231.602 242.527 233.455 238.371 236.329 234.953C233.277 230.813 279.419 218.936 279.335 221.602Z" fill="black"/>
</g>
<g opacity="0.2">
<path d="M187.511 292.375C187.496 292.875 187.439 293.373 187.339 293.863C184.105 293.35 180.853 292.887 177.582 292.473C177.582 292.343 177.582 292.208 177.582 292.074C177.612 290.684 178.013 289.327 178.744 288.142C179.701 286.631 181.155 285.685 182.758 285.736C184.361 285.787 185.75 286.821 186.61 288.384C187.26 289.611 187.571 290.988 187.511 292.375Z" fill="#3F3D56"/>
<path d="M187.773 284.455C187.886 280.87 185.753 277.893 183.009 277.807C180.265 277.72 177.948 280.556 177.835 284.142C177.721 287.727 179.854 290.704 182.598 290.79C185.342 290.877 187.659 288.04 187.773 284.455Z" fill="#3F3D56"/>
<path d="M188.027 276.518C188.14 272.933 186.007 269.956 183.263 269.869C180.519 269.783 178.202 272.619 178.088 276.205C177.975 279.79 180.108 282.767 182.852 282.853C185.596 282.94 187.913 280.103 188.027 276.518Z" fill="#3F3D56"/>
<path d="M188.276 268.581C188.389 264.996 186.256 262.019 183.512 261.932C180.768 261.846 178.451 264.682 178.337 268.267C178.224 271.853 180.357 274.829 183.101 274.916C185.845 275.002 188.162 272.166 188.276 268.581Z" fill="#3F3D56"/>
<path d="M188.525 260.644C188.638 257.058 186.505 254.082 183.761 253.995C181.017 253.909 178.7 256.745 178.586 260.33C178.473 263.916 180.606 266.892 183.35 266.979C186.094 267.065 188.411 264.229 188.525 260.644Z" fill="#3F3D56"/>
<path d="M166.649 205.57C165.995 204.686 165.405 203.757 164.884 202.789L178.014 201.06L163.88 200.721C162.619 197.736 161.981 194.525 162.006 191.286C162.031 188.046 162.717 184.846 164.024 181.88L182.665 192.288L165.59 178.918C167.312 176.138 169.591 173.742 172.283 171.881C174.975 170.019 178.023 168.731 181.236 168.098C184.45 167.464 187.76 167.498 190.959 168.198C194.158 168.898 197.179 170.249 199.832 172.166C202.484 174.083 204.713 176.526 206.377 179.341C208.041 182.155 209.106 185.283 209.505 188.527C209.903 191.77 209.627 195.062 208.694 198.194C207.761 201.327 206.19 204.234 204.08 206.734C205.098 208.109 205.962 209.59 206.659 211.152L189.425 219.404L207.699 213.92C208.85 217.709 209.036 221.724 208.239 225.602C207.442 229.481 205.688 233.099 203.137 236.131C205.79 239.723 207.376 243.987 207.715 248.436C208.053 252.885 207.13 257.339 205.051 261.289C202.972 265.24 199.821 268.526 195.958 270.774C192.095 273.021 187.676 274.138 183.206 273.998C178.737 273.857 174.397 272.464 170.684 269.979C166.97 267.493 164.032 264.015 162.207 259.942C160.381 255.868 159.741 251.365 160.36 246.946C160.979 242.527 162.832 238.371 165.706 234.953C162.536 230.661 160.905 225.43 161.073 220.101C161.242 214.772 163.201 209.655 166.635 205.57H166.649Z" fill="#3E6F00"/>
<path opacity="0.1" d="M208.712 221.602C208.55 226.934 206.585 232.054 203.137 236.131C205.79 239.723 207.376 243.987 207.715 248.436C208.053 252.885 207.13 257.339 205.051 261.289C202.972 265.24 199.821 268.526 195.958 270.774C192.095 273.021 187.676 274.138 183.206 273.998C178.737 273.857 174.397 272.464 170.684 269.979C166.97 267.493 164.032 264.015 162.207 259.942C160.381 255.868 159.741 251.365 160.36 246.946C160.979 242.527 162.832 238.371 165.706 234.953C162.653 230.813 208.796 218.936 208.712 221.602Z" fill="black"/>
</g>
<g opacity="0.2">
<path d="M380.424 297.447C380.388 298.394 380.275 299.337 380.084 300.266C373.858 299.274 367.587 298.387 361.271 297.605C361.271 297.354 361.271 297.099 361.271 296.84C361.33 294.162 362.103 291.549 363.511 289.269C365.37 286.362 368.157 284.54 371.238 284.633C374.318 284.726 376.999 286.724 378.672 289.733C379.933 292.103 380.538 294.766 380.424 297.447Z" fill="#3F3D56"/>
<path d="M380.93 282.184C381.149 275.279 377.041 269.547 371.755 269.38C366.469 269.213 362.006 274.676 361.788 281.58C361.569 288.485 365.677 294.217 370.963 294.384C376.249 294.55 380.711 289.088 380.93 282.184Z" fill="#3F3D56"/>
<path d="M381.412 266.903C381.631 259.999 377.523 254.266 372.237 254.1C366.951 253.933 362.489 259.395 362.27 266.299C362.051 273.204 366.159 278.936 371.445 279.103C376.731 279.27 381.194 273.808 381.412 266.903Z" fill="#3F3D56"/>
<path d="M381.901 251.623C382.119 244.718 378.011 238.986 372.725 238.819C367.439 238.652 362.977 244.115 362.758 251.019C362.54 257.924 366.647 263.656 371.934 263.823C377.22 263.989 381.682 258.527 381.901 251.623Z" fill="#3F3D56"/>
<path d="M381.839 235.647C382.046 228.739 377.927 223.01 372.639 222.852C367.35 222.694 362.894 228.165 362.687 235.073C362.479 241.981 366.598 247.71 371.887 247.868C377.175 248.026 381.631 242.555 381.839 235.647Z" fill="#3F3D56"/>
<path d="M340.257 130.337C339.004 128.635 337.869 126.849 336.861 124.992L362.137 121.663L334.933 121.009C332.503 115.263 331.273 109.082 331.32 102.846C331.366 96.6088 332.687 90.447 335.202 84.7372L371.095 104.769L338.227 79.0303C341.55 73.6914 345.94 69.0927 351.122 65.5209C356.305 61.949 362.169 59.4804 368.35 58.269C374.531 57.0577 380.895 57.1294 387.047 58.4798C393.198 59.8302 399.005 62.4304 404.106 66.1182C409.206 69.806 413.491 74.5025 416.692 79.9149C419.894 85.3273 421.944 91.3396 422.715 97.5772C423.485 103.815 422.96 110.144 421.172 116.17C419.384 122.196 416.371 127.791 412.321 132.604C414.279 135.253 415.944 138.106 417.288 141.111L384.109 157.008L419.286 146.438C421.503 153.723 421.864 161.445 420.336 168.904C418.809 176.364 415.441 183.325 410.537 189.159C415.644 196.073 418.697 204.282 419.348 212.847C419.999 221.411 418.222 229.986 414.219 237.59C410.216 245.194 404.15 251.521 396.713 255.847C389.276 260.173 380.77 262.323 372.166 262.053C363.562 261.782 355.208 259.101 348.059 254.316C340.911 249.531 335.256 242.836 331.741 234.995C328.226 227.155 326.993 218.486 328.184 209.979C329.375 201.472 332.94 193.472 338.473 186.892C332.374 178.629 329.235 168.561 329.558 158.304C329.882 148.047 333.65 138.196 340.257 130.332V130.337Z" fill="#3E6F00"/>
<path opacity="0.1" d="M421.242 161.194C420.937 171.453 417.172 181.31 410.556 189.168C415.662 196.083 418.716 204.292 419.367 212.856C420.018 221.421 418.24 229.995 414.238 237.599C410.235 245.203 404.168 251.53 396.732 255.856C389.295 260.182 380.788 262.333 372.185 262.062C363.581 261.791 355.227 259.11 348.078 254.326C340.929 249.541 335.274 242.845 331.759 235.005C328.245 227.164 327.012 218.495 328.203 209.988C329.393 201.482 332.959 193.481 338.492 186.901C332.572 178.923 421.405 156.062 421.242 161.194Z" fill="black"/>
</g>
<path d="M15.3848 298.263L20.2587 298.249H27.1306L35.8192 157.416L121.864 14.1491L118.124 10.1436V0L25.0676 154.097L15.3848 298.263Z" fill="#F1C0C0"/>
<path opacity="0.1" d="M20.7783 298.249H27.1298L35.8184 157.416L121.863 14.1491L118.123 10.1436L29.3693 155.269L20.7783 298.249Z" fill="black"/>
<path d="M1.02344 299.436L223.976 316.459L224.166 316.473L439.935 303.233L440.098 303.223V294.132L202.347 289.779L3.99242 289.589H2.54277L2.3848 290.609L1.02344 299.436Z" fill="#F1C0C0"/>
<path opacity="0.1" d="M1.02344 299.436L223.976 316.459L224.166 316.473L439.935 303.233L440.098 303.056V294.322H439.908L223.976 301.517L3.99242 289.589H3.95989L3.5696 289.844L2.3848 290.609L1.02344 299.436Z" fill="black"/>
<path opacity="0.1" d="M1.02344 299.436L223.976 316.459V301.517L3.5696 289.844L2.3848 290.609L1.02344 299.436Z" fill="black"/>
<path d="M118.095 9.95347L216.387 115.219L213.348 300.382L221.698 301.388L221.837 301.406H230.187L231.185 123.17L415.239 184.513L418.343 293.738L425.061 294.489L427.338 294.744L422.069 176.938L229.666 109.54L124.167 0.106567H118.095V9.95347Z" fill="#F1C0C0"/>
<path opacity="0.1" d="M230.429 119.762L231.186 123.17L415.24 184.513L418.343 293.738L425.062 294.489L419.793 182.242L230.429 119.762Z" fill="black"/>
<path opacity="0.1" d="M118.095 9.95347L216.387 115.219L213.348 300.381L221.698 301.387L223.974 109.16L118.095 0.106567V9.95347Z" fill="black"/>
<path d="M230.786 194.073L298.292 207.337L298.315 207.341L416.55 230.582L421.962 228.417L421.944 228.036L421.591 220.503L230.856 182.047L230.786 194.073Z" fill="#F1C0C0"/>
<path opacity="0.1" d="M298.314 207.341L416.549 230.582L421.962 228.417L421.943 228.036L298.314 207.341Z" fill="black"/>
<path d="M302.836 147.05L304.662 247.345L305.605 298.801L313.917 298.522L319.149 298.346L317.523 148.501L313.917 147.305L313.127 147.05H302.836Z" fill="#F1C0C0"/>
<path opacity="0.1" d="M302.91 147.027V147.05L304.662 247.346L305.605 298.801L313.917 298.523V147.027H302.91Z" fill="black"/>
<path d="M172.633 172.664C173.121 172.928 173.587 173.231 174.027 173.568C174.548 174.023 175.015 174.534 175.421 175.093C177.414 177.666 179.254 180.656 179.059 183.902C179.063 184.374 178.974 184.842 178.796 185.28C178.618 185.717 178.356 186.115 178.023 186.451C177.201 187.151 176.021 187.184 174.943 187.184C173.772 187.184 172.541 187.184 171.528 186.581C170.515 185.979 169.669 184.806 168.47 184.833C168.301 184.861 168.129 184.861 167.959 184.833C167.546 184.699 167.462 184.157 167.193 183.814C166.728 183.197 165.748 183.35 165.018 183.619C164.289 183.888 163.48 184.291 162.76 183.98C162.342 183.76 162 183.419 161.78 183.002C160.056 180.221 159.689 176.878 159.364 173.647C159.164 171.681 157.64 164.977 161.845 166.503C163.703 167.17 165.441 168.505 167.132 169.484L172.633 172.664Z" fill="#3F3D56"/>
<path d="M168.479 173.327C168.855 173.596 169.31 173.733 169.772 173.714C170.234 173.696 170.677 173.523 171.03 173.225C171.722 172.601 172.163 171.748 172.271 170.823C172.735 170.68 172.972 171.287 173.269 171.658C173.79 172.288 174.849 172.279 175.323 172.951C175.653 173.415 175.579 174.059 175.811 174.583C176.113 175.26 176.861 175.612 177.372 176.159C177.855 176.757 178.203 177.451 178.394 178.195L179.156 180.476C179.521 181.424 179.755 182.417 179.853 183.429C179.901 183.934 179.848 184.444 179.696 184.929C179.545 185.414 179.298 185.863 178.97 186.252C177.948 187.351 176.271 187.467 174.789 187.434C174.294 187.445 173.8 187.387 173.321 187.263C172.006 186.855 171.165 185.533 170.816 184.203C170.468 182.872 170.505 181.477 170.301 180.114C170.08 178.775 169.689 177.47 169.139 176.229C168.73 175.265 167.606 173.827 167.624 172.803C167.959 172.803 168.2 173.109 168.479 173.327Z" fill="#3F3D56"/>
<path d="M170.148 168.631C169.93 167.972 169.804 167.288 169.771 166.595C169.771 165.205 170.408 163.897 171.049 162.655L165.738 163.373C165.097 163.461 164.381 163.591 164.019 164.124C163.881 164.389 163.81 164.682 163.81 164.98C163.81 165.277 163.881 165.571 164.019 165.835C164.285 166.364 164.497 166.918 164.651 167.49C164.663 167.99 164.721 168.488 164.823 168.978C164.988 169.338 165.22 169.664 165.506 169.938C167.025 171.616 168.164 173.596 169.297 175.557C169.265 175.501 172.499 173.002 172.368 172.186C172.294 171.723 171.36 171.166 171.063 170.721C170.652 170.075 170.343 169.37 170.148 168.631Z" fill="#BE6F72"/>
<path d="M215.68 150.518V155.084L137.311 170.337L133.246 172.794H119.219V170.221L196.217 151.658L215.68 150.518Z" fill="#F1C0C0"/>
<path opacity="0.1" d="M215.68 155.084L137.311 170.337L133.246 172.794H119.219L196.789 156.229L215.68 155.084Z" fill="black"/>
<path d="M152.761 280.15C151.888 279.095 150.682 278.366 149.341 278.081C148 277.797 146.601 277.973 145.373 278.583C145.111 278.706 144.879 278.887 144.695 279.111C144.23 279.761 144.528 280.655 144.57 281.457C144.676 283.414 143.115 285.004 141.712 286.371C140.959 287.104 140.193 287.887 139.854 288.884C139.514 289.881 139.765 291.147 140.676 291.666C141.073 291.865 141.506 291.984 141.949 292.018C143.434 292.307 144.957 292.349 146.456 292.143C147.938 291.861 149.392 291.021 150.034 289.658C150.157 289.289 150.362 288.952 150.633 288.671C151.451 288.027 152.705 288.782 153.634 288.323C154.401 287.943 154.434 287.345 154.443 286.557C154.471 284.378 154.146 281.912 152.761 280.15Z" fill="#3E6F00"/>
<path d="M163.912 280.067C164.484 281.569 164.563 283.205 164.637 284.809C164.679 285.736 164.707 286.728 164.205 287.512C163.703 288.295 162.723 288.708 161.784 288.903C159.847 289.301 157.602 288.926 156.353 287.391C155.395 286.218 155.196 284.61 155.372 283.089C155.521 281.842 155.837 280.382 154.94 279.496C154.708 279.26 154.406 279.093 154.192 278.838C153.727 278.272 153.802 277.419 154.053 276.724C154.379 276.059 154.624 275.357 154.782 274.633C154.819 274.29 161.073 274.874 161.649 275.157C162.435 275.542 162.314 276.186 162.551 276.965C162.881 278.05 163.513 279.028 163.912 280.067Z" fill="#3E6F00"/>
<path d="M165.06 213.465C166.287 214.258 166.761 215.816 166.951 217.262C167.476 221.226 166.556 225.232 166.487 229.233C166.422 234.838 168.048 240.544 166.659 245.973C165.827 249.218 166.533 252.927 165.753 256.205C165.52 257.178 165.093 258.096 164.87 259.07C164.405 261.179 164.893 263.386 165.548 265.449C165.757 266.005 165.89 266.587 165.943 267.178C165.912 268.089 165.68 268.982 165.265 269.793L162.477 276.372C162.166 277.109 160.939 277.229 160.154 277.327C158.676 277.503 157.027 277.628 155.851 276.715C154.676 275.801 154.392 274.271 154.211 272.844C153.864 270.102 153.708 267.34 153.747 264.578C153.798 263.857 153.733 263.132 153.556 262.431C153.301 261.638 152.738 260.952 152.585 260.113C152.39 259.028 152.943 257.962 153.147 256.868C153.287 255.869 153.272 254.854 153.101 253.859C152.92 252.376 152.71 250.892 152.473 249.418C152.139 247.355 152.618 245.32 152.938 243.252C153.24 241.309 152.854 239.33 152.473 237.401C152.506 238.966 152.311 240.528 151.893 242.037C151.646 242.774 151.293 243.479 151.08 244.23C150.127 247.6 152.158 251.138 151.869 254.629C151.735 256.261 151.094 257.874 151.275 259.483C151.4 260.66 151.948 261.74 152.325 262.862C152.701 263.984 152.896 265.268 152.325 266.316C150.815 269.163 151.944 273.034 153.296 275.954C153.57 276.472 153.809 277.008 154.011 277.558C154.411 278.875 154.076 280.289 154.183 281.661C153.794 281.725 153.396 281.699 153.018 281.586C152.64 281.472 152.294 281.275 152.004 281.008C151.8 280.794 151.633 280.544 151.433 280.321C150.874 279.791 150.214 279.379 149.491 279.111C149.066 278.874 148.582 278.763 148.097 278.792C147.586 278.934 147.127 279.219 146.772 279.612C146.313 280.015 145.825 280.386 145.314 280.72C145.096 280.887 144.841 281 144.57 281.049C144.434 281.07 144.295 281.048 144.172 280.986C144.05 280.923 143.95 280.824 143.887 280.702C143.858 280.624 143.841 280.543 143.836 280.461C143.663 279.061 143.572 277.652 143.562 276.242C143.562 273.817 140.653 272.148 140.286 269.751C139.994 267.818 140.537 265.848 140.356 263.901C140.268 262.899 139.989 261.916 140.007 260.915C140.007 260.266 140.156 259.631 140.207 258.987C140.25 258.271 140.239 257.554 140.175 256.84L140.031 254.601C139.891 252.389 139.738 250.132 138.864 248.11C137.829 245.75 137.215 243.227 137.052 240.656C136.96 239.033 137.02 237.41 136.834 235.783C136.667 234.314 136.295 232.853 136.402 231.379C136.49 230.239 136.867 229.135 136.955 227.995C137.136 225.802 136.3 223.669 135.645 221.569C134.989 219.469 134.506 217.142 135.366 215.116C135.489 214.783 135.693 214.487 135.961 214.254C136.29 214.036 136.665 213.896 137.057 213.846C145.029 212.175 153.2 211.655 161.32 212.302C162.644 212.377 163.928 212.776 165.06 213.465Z" fill="#3F3D56"/>
<path d="M138.684 164.226C142.794 164.226 146.127 160.901 146.127 156.799C146.127 152.698 142.794 149.373 138.684 149.373C134.573 149.373 131.24 152.698 131.24 156.799C131.24 160.901 134.573 164.226 138.684 164.226Z" fill="#BE6F72"/>
<path d="M137.242 166.076C137.349 166.501 137.349 166.945 137.242 167.369C137.125 167.666 136.961 167.942 136.755 168.185C136.034 169.113 135.237 169.978 134.371 170.772C134.812 171.755 135.606 172.538 136.597 172.965C137.58 173.383 138.612 173.677 139.668 173.841C140.195 173.98 140.744 174.017 141.285 173.953C141.784 173.828 142.256 173.614 142.679 173.322L146.814 170.851C147.438 170.514 148.016 170.098 148.533 169.613C149.291 168.836 149.721 167.796 149.732 166.711C149.751 166.517 149.698 166.322 149.583 166.164C149.425 166.026 149.226 165.944 149.016 165.928C147.562 165.608 146.414 164.43 145.764 163.095C145.176 161.726 144.795 160.278 144.635 158.797L140.225 161.115C139.57 161.463 138.92 161.811 138.241 162.112C137.809 162.307 136.936 162.469 136.629 162.863C136.044 163.591 137.089 165.2 137.242 166.076Z" fill="#BE6F72"/>
<path d="M134.399 169.423C133.771 169.937 133.281 170.598 132.973 171.347C132.685 172.274 132.973 173.253 133.233 174.171C134.452 178.083 135.384 182.079 136.021 186.127C136.411 188.908 136.555 191.732 136.745 194.546C137.136 200.285 137.702 209.437 138.46 215.139C141.248 215.264 143.966 214.453 146.73 214.156C151.897 213.609 157.217 214.861 162.277 213.693C161.05 208.857 159.824 200.601 158.597 195.77C158.054 193.867 157.678 191.92 157.472 189.952C157.366 188.538 157.431 187.119 157.449 185.696C157.491 182.914 157.338 180.133 157.184 177.351C157.008 174.106 156.831 170.86 156.06 167.685C156.006 167.28 155.816 166.906 155.521 166.623C155.056 166.285 154.452 166.405 153.899 166.479C152.207 166.694 150.493 166.289 149.077 165.339C148.463 164.922 147.641 164.412 147.069 164.875C146.826 165.155 146.665 165.497 146.605 165.863C146.352 166.519 145.962 167.113 145.46 167.606C144.958 168.1 144.357 168.48 143.696 168.723C142.372 169.202 140.985 169.486 139.58 169.567C139.149 169.659 138.701 169.609 138.302 169.423C137.642 169.02 137.596 167.569 136.764 167.472C136.034 167.388 134.891 168.955 134.399 169.423Z" fill="#3F3D56"/>
<path d="M145.392 180.744C143.677 179.108 142.925 176.734 141.675 174.718C140.824 173.362 139.737 172.168 138.464 171.194C137.825 170.773 137.238 170.276 136.717 169.715C136.276 169.173 135.941 168.45 135.272 168.241C134.996 168.181 134.709 168.189 134.436 168.264C134.163 168.339 133.913 168.479 133.707 168.672C133.297 169.062 132.909 169.473 132.545 169.905C130.575 171.941 127.113 172.223 125.552 174.579C125.131 175.078 124.845 175.676 124.721 176.317C124.271 179.745 125.159 183.214 127.202 186.006C127.597 186.654 128.204 187.145 128.921 187.397C128.824 188.262 128.938 189.137 129.255 189.947C130.116 192.881 131.173 195.754 132.419 198.547C132.121 199.639 131.913 200.754 131.797 201.88C131.472 204.713 131.774 207.587 131.467 210.424C131.216 212.742 130.538 215 130.515 217.323C130.515 217.694 130.547 218.134 130.868 218.324C131.038 218.411 131.229 218.451 131.421 218.44L137.135 218.611C140.453 218.709 143.803 218.806 147.069 218.194C147.504 218.13 147.926 217.997 148.319 217.8C149.425 217.184 149.792 215.793 149.969 214.555C150.199 212.949 150.291 211.327 150.243 209.706C150.935 211.889 151.757 214.147 153.848 215.093C154.954 215.593 156.218 215.556 157.43 215.524C160.044 215.408 162.649 215.14 165.232 214.722C165.391 214.742 165.552 214.724 165.703 214.67C165.854 214.616 165.991 214.528 166.101 214.412C166.212 214.296 166.294 214.156 166.341 214.003C166.387 213.85 166.397 213.688 166.37 213.53L166.398 210.999C166.454 205.858 165.176 200.944 164.679 195.825C164.521 194.212 164.535 192.58 164.14 190.999C163.977 190.336 163.74 189.687 163.596 189.02C163.472 188.366 163.395 187.705 163.364 187.04L163.001 181.941C162.829 179.581 162.583 177.305 162.402 174.949C162.302 172.656 161.969 170.379 161.408 168.153C161.003 166.762 160.163 165.186 158.708 165.014C157.932 164.926 157.18 165.265 156.441 165.501C154.625 166.072 152.676 166.064 150.865 165.478C150.306 165.258 149.723 165.102 149.128 165.014C148.828 164.974 148.523 165.013 148.244 165.129C147.965 165.245 147.721 165.432 147.539 165.673C147.358 166.035 147.273 166.437 147.292 166.841C147.074 171.472 146.67 176.243 145.392 180.744Z" fill="#3E6F00"/>
<path d="M137.916 180.884C135.774 178.63 133.576 176.336 130.816 174.903C129.729 174.337 128.493 173.911 127.29 174.124C126.087 174.337 124.967 175.381 125.023 176.6C125.06 177.355 125.52 178.023 125.664 178.765C125.831 179.599 125.589 180.489 125.85 181.296C126.061 181.828 126.377 182.312 126.779 182.719L130.068 186.609C131.462 188.232 132.856 189.877 134.65 190.999C136.443 192.121 138.766 192.645 140.736 191.848C142.138 191.198 143.303 190.13 144.072 188.793C144.89 187.494 145.466 186.076 146.233 184.736C147.426 182.595 149.001 180.69 150.879 179.113C149.913 178.862 148.7 178.51 148.091 177.722C147.918 177.471 147.77 177.204 147.65 176.924L146.897 175.302C146.641 175.288 146.385 175.328 146.145 175.418C145.906 175.508 145.687 175.647 145.503 175.826C145.181 176.198 144.835 176.549 144.467 176.878C143.812 177.369 142.925 177.504 142.33 178.065C142.1 178.306 141.891 178.566 141.707 178.844C141.258 179.434 140.687 179.921 140.033 180.273C139.379 180.624 138.657 180.833 137.916 180.884Z" fill="#3F3D56"/>
<path d="M151.052 171.19C152.664 168.255 152.59 164.736 153.05 161.422C153.099 160.544 153.408 159.7 153.937 158.997C154.866 157.949 156.507 157.935 157.91 158.07C158.323 158.116 158.839 158.311 158.816 158.723C158.783 158.871 158.711 159.007 158.607 159.117C157.247 160.869 156.447 162.988 156.311 165.2C157.041 165.705 158.17 164.667 158.871 165.2C159.336 165.589 159.122 166.359 158.844 166.915C158.196 168.204 157.529 169.484 156.841 170.754C156.292 171.873 155.576 172.904 154.718 173.809C154.128 174.375 153.435 174.82 152.836 175.376C151.442 176.679 150.601 178.519 149.161 179.789C149.039 179.921 148.874 180.005 148.696 180.026C148.513 180.013 148.34 179.936 148.208 179.808C147.489 179.224 146.892 178.504 146.452 177.689C145.904 176.679 145.987 176.382 146.852 175.668C148.468 174.393 150.044 173.025 151.052 171.19Z" fill="#BE6F72"/>
<path d="M135.221 178.89C135.5 179.062 135.844 179.256 136.151 179.113C136.276 179.037 136.382 178.934 136.462 178.811C136.993 178.104 137.436 177.335 137.781 176.521C137.841 176.406 137.874 176.279 137.879 176.15C137.879 175.853 137.614 175.636 137.368 175.464C136.048 174.625 134.63 173.952 133.144 173.461C131.918 172.998 130.635 172.594 129.334 172.71C128.846 172.743 128.368 172.874 127.932 173.096C127.495 173.317 127.108 173.624 126.793 173.999C125.864 175.191 127.42 175.552 128.396 175.983C130.654 177.008 133.098 177.601 135.221 178.89Z" fill="#3E6F00"/>
<path opacity="0.1" d="M133.757 186.771C133.742 186.877 133.751 186.985 133.785 187.087C133.819 187.188 133.876 187.28 133.953 187.355C134.087 186.697 133.911 186.002 134.05 185.339C134.255 184.342 135.226 183.591 135.309 182.59C133.53 182.242 133.771 185.696 133.757 186.771Z" fill="black"/>
<path opacity="0.2" d="M215.682 150.518V155.084L196.79 156.229L196.219 151.658L215.682 150.518Z" fill="black"/>
<path d="M131.982 157.903C133.162 156.943 132.479 154.931 133.278 153.642C133.743 152.938 134.528 152.567 135.3 152.251C136.23 151.817 137.228 151.541 138.25 151.435C138.762 151.386 139.278 151.453 139.761 151.63C140.244 151.808 140.68 152.091 141.038 152.46C141.34 152.803 141.544 153.22 141.828 153.577C142.179 153.994 142.636 154.308 143.151 154.486C143.667 154.664 144.221 154.699 144.755 154.588C145.373 154.449 146.014 153.981 145.972 153.35C145.902 152.967 145.706 152.617 145.415 152.358L144.086 150.888C142.576 149.219 140.898 147.449 138.682 147.031C137.14 146.739 135.56 147.152 134.073 147.648C133.474 147.847 132.8 148.144 132.633 148.751C132.521 149.168 132.688 149.623 132.591 150.045C132.4 150.884 131.322 151.167 130.821 151.871C130.319 152.576 130.472 153.41 130.328 154.189C130.184 154.968 129.766 155.728 129.715 156.535C129.682 157.022 129.928 157.926 130.477 158.102C131.025 158.278 131.643 157.323 131.982 157.903Z" fill="#3F3D56"/>
<path d="M145.522 152.683C145.13 150.643 144.286 148.717 143.05 147.045C141.952 145.484 140.424 144.273 138.65 143.559C137.764 143.213 136.811 143.073 135.862 143.147C134.913 143.222 133.994 143.51 133.172 143.99C131.953 144.858 131.005 146.052 130.436 147.435C129.232 150.022 128.786 153.183 130.185 155.668C130.742 154.991 131.7 155.297 132.545 155.052C133.605 154.75 134.501 154.046 135.51 153.605C138.553 152.265 142.27 153.35 145.522 152.683Z" fill="#FED253"/>
<path opacity="0.1" d="M130.896 152.539C130.789 151.704 130.719 150.735 131.314 150.142C131.343 150.106 131.381 150.077 131.424 150.057C131.467 150.038 131.513 150.029 131.56 150.031C131.602 150.044 131.64 150.066 131.673 150.095C131.705 150.123 131.732 150.158 131.751 150.198C132.094 150.738 132.386 151.309 132.624 151.904C132.278 151.824 131.916 151.85 131.584 151.978C131.253 152.106 130.968 152.331 130.766 152.622" fill="black"/>
<path opacity="0.1" d="M141.755 150.184L141.587 148.529C141.56 148.392 141.572 148.251 141.62 148.121C141.69 148.012 141.798 147.932 141.923 147.898C142.049 147.864 142.182 147.877 142.298 147.935C142.527 148.062 142.715 148.25 142.842 148.478C143.229 149.07 143.549 149.703 143.799 150.365C143.051 150.221 142.281 150.23 141.536 150.392" fill="black"/>
<path opacity="0.1" d="M145.913 217.355V221.138L142.711 221.351H125.873V217.355H145.913Z" fill="black"/>
<path d="M145.912 217.355V221.351H125.873L72.6357 154.811V151.667H83.7961L145.912 217.355Z" fill="#F1C0C0"/>
<path opacity="0.1" d="M145.912 217.355V221.351H125.873L72.6357 154.811V151.667H83.7961L145.912 217.355Z" fill="black"/>
<path opacity="0.1" d="M145.912 217.355V221.351H125.873L72.6357 154.811V151.667L126.161 217.355H145.912Z" fill="black"/>
<path d="M79.6144 284.049C79.6494 284.237 79.6452 284.43 79.602 284.616C79.5588 284.803 79.4775 284.978 79.3633 285.132C79.249 285.285 79.1043 285.414 78.938 285.509C78.7718 285.604 78.5876 285.664 78.3971 285.685C77.1054 286.121 75.7348 286.552 74.8194 287.54C73.9041 288.527 73.7229 290.358 74.8194 291.16C75.3799 291.498 76.0235 291.673 76.678 291.666C78.7827 291.81 80.9758 291.782 82.8854 290.892C84.2514 290.261 85.5384 289.186 87.0392 289.283C87.8151 289.329 88.6422 289.691 89.3345 289.339C90.0268 288.986 90.2219 288.003 90.2265 287.183C90.2442 285.47 89.9853 283.765 89.4599 282.134C89.3902 281.912 86.4352 281.74 86.0821 281.671L82.4998 281.207C81.8214 281.119 80.3578 280.609 79.8235 281.174C79.2892 281.74 79.6144 283.377 79.6144 284.049Z" fill="#3E6F00"/>
<path d="M100.991 272.477C101.143 273.312 101.389 274.127 101.726 274.907C102.223 276.168 102.859 277.507 104.077 278.119C105.182 278.671 106.539 278.472 107.663 277.948C108.133 277.754 108.544 277.443 108.858 277.044C109.22 276.413 109.382 275.687 109.322 274.962C109.322 273.168 109.215 271.314 108.393 269.719C107.687 268.328 106.455 267.132 106.437 265.593L102.204 266.409C101.978 266.431 101.762 266.516 101.581 266.655C101.447 266.795 101.354 266.97 101.312 267.16C100.86 268.895 100.751 270.701 100.991 272.477Z" fill="#3E6F00"/>
<path d="M50.4445 228.435C50.268 229.928 50.3423 231.527 51.1229 232.816C51.9035 234.105 53.5483 234.958 54.97 234.443C55.0429 234.425 55.1112 234.392 55.1711 234.347C55.231 234.301 55.2811 234.244 55.3185 234.179C55.3563 234.023 55.3348 233.857 55.2581 233.716C54.6304 232.044 54.6821 230.194 55.4021 228.56C55.4951 228.347 55.6949 228.097 55.9132 228.18C56.0046 228.226 56.0781 228.301 56.1223 228.393C56.3472 228.782 56.4598 229.225 56.4476 229.673C56.382 230.079 56.3695 230.492 56.4104 230.902C56.4987 231.3 56.9261 231.676 57.2978 231.504C57.4053 231.438 57.4982 231.351 57.5709 231.249C57.6436 231.146 57.6945 231.029 57.7206 230.906C58.7568 227.916 58.2875 224.648 57.8136 221.518C57.8175 221.446 57.8056 221.375 57.7787 221.308C57.7518 221.241 57.7105 221.181 57.6577 221.132C57.605 221.083 57.5421 221.046 57.4735 221.024C57.4049 221.002 57.3322 220.995 57.2607 221.004C55.0676 220.786 53.8689 220.262 52.6144 222.297C51.5364 224.012 50.4445 226.372 50.4445 228.435Z" fill="#3E6F00"/>
<path d="M76.0828 220.827C75.4323 223.526 74.7772 226.256 74.7354 229.029C74.7468 230.755 74.8772 232.479 75.1256 234.188L75.6135 238.203C75.7808 239.557 75.9434 240.906 76.1804 242.246C76.3315 242.936 76.414 243.64 76.4266 244.346C76.381 245.042 76.2706 245.733 76.0967 246.409C75.8045 247.829 75.6413 249.272 75.6089 250.72C75.5577 253.038 75.8458 255.357 76.027 257.675C76.3888 262.294 76.3343 266.936 75.8644 271.545C75.6768 272.79 75.9475 274.06 76.6264 275.12C76.9019 275.454 77.1287 275.826 77.3001 276.223C77.6486 277.285 76.8355 278.347 76.6264 279.436C76.4927 280.286 76.7023 281.153 77.2094 281.849C77.7164 282.544 78.4793 283.01 79.3305 283.145C83.0476 283.585 86.8668 283.386 90.2168 285.083C90.5699 284.053 89.7986 282.885 90.1517 281.837C90.3748 281.188 90.9881 280.767 91.4062 280.219C91.968 279.386 92.248 278.395 92.2054 277.391C92.2218 276.082 91.9885 274.78 91.5178 273.558C91.1228 272.538 90.556 271.532 90.5885 270.437C90.5885 269.9 90.779 269.334 90.5606 268.838C90.4109 268.553 90.2074 268.3 89.9613 268.092C88.5726 266.574 87.7193 264.645 87.5312 262.598C87.3501 260.567 87.4156 258.522 87.7264 256.506C87.954 254.587 88.2607 252.561 89.4827 251.064C88.916 246.523 89.2491 241.916 90.4631 237.503C90.5839 237.095 90.7744 236.622 91.1925 236.525C91.3586 236.508 91.5264 236.531 91.6817 236.592C91.837 236.654 91.9751 236.752 92.0846 236.877C92.8141 237.559 93.1625 238.546 93.4785 239.492C93.827 240.517 94.1801 241.611 93.9152 242.658C93.8037 243.122 93.5807 243.53 93.4506 243.975C93.168 244.869 93.2174 245.835 93.59 246.696C93.7716 247.011 93.8855 247.36 93.9245 247.721C93.8815 248.031 93.7873 248.332 93.6458 248.611C93.4734 249.16 93.4187 249.738 93.4851 250.309C93.5516 250.88 93.7377 251.431 94.0314 251.926C94.6236 252.91 95.3543 253.805 96.2012 254.582C95.7966 256.362 95.9012 258.219 96.5032 259.942C96.5467 260.019 96.5744 260.105 96.5847 260.193C96.5951 260.281 96.5879 260.371 96.5636 260.456C96.48 260.632 96.2663 260.697 96.099 260.822C95.6344 261.203 95.9225 261.921 96.2338 262.417C97.0869 263.779 98.0291 265.083 99.054 266.321C99.9833 267.429 99.8997 269.566 101.284 269.965C101.866 270.09 102.468 270.09 103.05 269.965C104.416 269.756 105.94 269.362 106.609 268.157C106.883 267.66 106.995 267.058 107.422 266.687C107.849 266.316 108.402 266.251 108.639 265.806C108.876 265.361 108.611 264.777 108.69 264.262C108.769 263.748 109.22 263.335 109.364 262.793C109.708 261.541 108.244 260.512 108.045 259.232C107.757 257.378 110.098 255.987 110.001 254.133C109.796 250.104 109.666 246.057 109.457 242.028C109.195 238.419 109.157 234.798 109.346 231.184C109.508 228.936 109.81 226.581 108.983 224.49C107.794 221.541 104.513 219.886 101.34 219.571C98.1666 219.256 95.0025 220.007 91.8569 220.498C86.6364 221.301 81.3324 221.412 76.0828 220.827Z" fill="#3F3D56"/>
<path d="M85.5147 176.516C89.6255 176.516 92.958 173.191 92.958 169.09C92.958 164.988 89.6255 161.663 85.5147 161.663C81.4038 161.663 78.0713 164.988 78.0713 169.09C78.0713 173.191 81.4038 176.516 85.5147 176.516Z" fill="#FBBEBE"/>
<path d="M82.4861 177.903C82.2332 178.49 81.8081 178.987 81.2665 179.329C80.725 179.671 80.0924 179.841 79.4521 179.817C79.1826 180.93 79.8284 182.052 80.5672 182.928C82.1012 184.709 84.0837 186.05 86.3101 186.812C88.5364 187.574 90.9262 187.729 93.233 187.263C94.1306 187.102 94.9823 186.748 95.728 186.224C96.7334 185.387 97.4085 184.22 97.633 182.933C97.8469 181.654 97.9077 180.355 97.8142 179.062C97.8403 178.806 97.7671 178.551 97.6098 178.348C97.424 178.204 97.1943 178.129 96.9593 178.134C95.3889 177.995 93.7487 177.935 92.3688 177.165C90.9888 176.396 90.0085 174.657 90.6729 173.229C90.566 173.452 87.8526 173.559 87.4948 173.605C86.3751 173.763 85.2553 173.939 84.1402 174.143C83.6044 174.172 83.0748 174.272 82.5651 174.439C81.8914 174.787 82.1423 174.616 82.3003 175.246C82.5372 176.21 82.8857 176.901 82.4861 177.903Z" fill="#FBBEBE"/>
<path d="M88.1493 182.418C87.1469 182.43 86.1467 182.319 85.1711 182.089C84.186 181.859 83.3177 181.281 82.7271 180.462C82.3833 179.942 82.1603 179.289 81.612 178.997C80.7153 178.533 79.6931 179.317 78.9776 180.035C78.3261 180.744 77.5711 181.35 76.7381 181.834C75.7437 182.358 74.5822 182.543 73.6436 183.16C72.9104 183.713 72.2812 184.391 71.7851 185.163L65.2013 194.11C62.5576 197.708 60.2577 201.569 57.902 205.366C55.8623 208.653 54.7936 212.436 53.2557 215.983C53.1339 216.2 53.0835 216.45 53.1117 216.697C53.1674 216.938 53.4601 217.133 53.6646 216.993C52.9723 217.68 53.5809 218.848 53.4183 219.812C53.2335 220.487 52.8479 221.09 52.3125 221.541C53.3352 221.408 54.3734 221.457 55.3791 221.685C56.4184 221.979 57.3992 222.45 58.2783 223.076C58.8405 222.988 58.7894 221.991 59.2076 221.62C59.4585 221.402 59.8302 221.43 60.1601 221.365C61.4006 221.124 61.8932 219.636 62.8456 218.797C63.6402 218.097 64.7646 217.87 65.6055 217.211C66.9716 216.14 67.2643 214.235 67.9798 212.654C68.5885 211.314 69.5456 210.146 70.0799 208.774C70.4284 207.884 70.5957 206.919 71.0928 206.099C71.8873 204.773 73.3834 204.068 74.8098 203.433C75.7112 203.03 76.6684 202.613 77.6394 202.677C77.5883 204.833 77.3142 206.956 77.7835 209.061C77.9461 209.803 78.1738 210.526 78.3689 211.263C79.2563 214.583 79.4654 218.041 79.5073 221.463C81.642 220.975 83.8224 220.714 86.0121 220.684C87.7358 220.633 89.455 220.855 91.1787 220.823C93.2231 220.786 95.2442 220.392 97.2886 220.253C99.333 220.113 101.47 220.253 103.278 221.18C103.131 218.242 103.213 215.297 103.524 212.371L104.016 207.763C104.128 206.424 104.334 205.095 104.634 203.785C104.904 202.728 105.294 201.709 105.592 200.656C106.637 196.947 106.446 192.988 106.247 189.126C106.144 187.142 105.378 185.19 104.476 183.424C104.15 182.768 103.778 182.136 103.361 181.533C102.272 180.035 100.82 178.837 99.1419 178.051C97.4633 177.265 95.6125 176.915 93.7621 177.036C93.5257 177.043 93.2927 177.093 93.0744 177.184C92.6822 177.435 92.3759 177.798 92.1963 178.227C91.235 179.951 89.8402 181.395 88.1493 182.418Z" fill="#3F3D56"/>
<path d="M78.9679 171.551C79.177 171.088 79.7392 170.916 80.083 170.545C80.7428 169.841 80.4454 168.714 80.5476 167.764C80.7149 166.373 81.8718 165.209 83.196 164.713C84.5464 164.281 85.9834 164.19 87.3777 164.449C88.0488 164.498 88.6972 164.713 89.2641 165.075C89.5057 165.251 89.7287 165.478 89.9564 165.64C90.3714 165.891 90.868 165.969 91.3402 165.859C91.8125 165.749 92.2229 165.459 92.4839 165.052C90.8392 163.077 89.0178 160.99 86.5181 160.383C85.6606 160.208 84.7867 160.126 83.9115 160.137C82.7546 160.114 81.5605 160.096 80.4919 160.536C79.0376 161.134 78.0154 162.511 77.4903 163.995C77.0312 165.498 76.7857 167.059 76.7609 168.631C76.6656 169.679 76.6656 170.734 76.7609 171.783C76.9405 173.215 77.4737 174.58 78.3128 175.756C78.4262 175.939 78.5866 176.088 78.7774 176.187C80.8961 177.114 78.796 171.936 78.9679 171.551Z" fill="#3F3D56"/>
<path d="M92.2427 163.906C91.9872 161.723 90.426 159.919 88.7673 158.468C87.4304 157.21 85.8378 156.254 84.0977 155.664C82.3461 155.149 80.3296 155.26 78.8289 156.303C77.6208 157.142 76.8542 158.478 76.2641 159.822C75.4889 161.409 75.105 163.157 75.1443 164.922C75.2605 166.674 76.1154 168.45 77.6394 169.335C78.1877 168.529 79.1402 168.111 80.0555 167.782C84.0449 166.272 88.1132 164.978 92.2427 163.906Z" fill="#FED253"/>
<path opacity="0.1" d="M78.1508 162.998C78.2995 162.998 78.3971 163.151 78.4714 163.276C78.8497 163.864 79.1747 164.485 79.4425 165.13C78.8989 165.246 77.965 165.376 77.6955 164.899C77.5515 164.657 77.7234 162.975 78.1508 162.998Z" fill="black"/>
<path opacity="0.1" d="M88.7392 161.95C88.6277 162.057 88.4976 161.839 88.4976 161.681V159.882C88.4945 159.832 88.5058 159.782 88.5301 159.739C88.5494 159.717 88.5729 159.699 88.5992 159.686C88.6255 159.673 88.6542 159.666 88.6834 159.664C89.0598 159.623 89.3711 159.943 89.6127 160.249C89.9793 160.744 90.2982 161.274 90.5652 161.829L88.5998 161.769" fill="black"/>
<path d="M113.268 191.736C113.695 191.331 114.152 190.958 114.634 190.619C115.921 189.761 117.477 189.423 118.922 188.876C120.367 188.329 121.835 187.443 122.398 186.006C122.679 185.108 122.771 184.16 122.667 183.225C122.681 182.833 122.611 182.443 122.463 182.08C122.286 181.759 122.034 181.485 121.728 181.282C119.768 179.836 117.138 179.72 114.703 179.868C109.336 180.2 104.074 181.511 99.18 183.735C98.9212 183.82 98.6944 183.982 98.5295 184.198C98.4342 184.399 98.3911 184.621 98.4041 184.843C98.3175 186.21 98.4958 187.581 98.9291 188.881C99.5703 190.531 100.89 191.862 101.443 193.544C101.694 194.3 101.777 195.102 101.996 195.862C102.175 196.648 102.64 197.338 103.301 197.8C105.137 198.894 106.87 197.425 108.143 196.284L113.268 191.736Z" fill="#3F3D56"/>
<path d="M89.2329 198.157L86.8772 193.03C86.5318 192.319 86.2338 191.587 85.9851 190.837C85.7156 189.942 85.5855 189.015 85.3346 188.116C84.5076 185.121 82.4214 182.627 81.4038 179.692C81.3395 179.427 81.2084 179.183 81.0228 178.983C80.8743 178.878 80.7045 178.807 80.5255 178.775C80.3464 178.743 80.1625 178.75 79.9867 178.797C78.565 179.043 77.4545 180.123 76.1535 180.735C75.5495 181.013 74.899 181.199 74.295 181.519C73.9931 181.661 73.7256 181.867 73.5107 182.122C73.2958 182.378 73.1386 182.676 73.0498 182.998C72.9058 183.707 73.2589 184.388 73.5563 185.079C74.82 187.926 75.1081 191.106 75.1639 194.221C75.2057 196.317 75.0988 198.565 73.8583 200.248C71.4747 203.493 72.9987 208.259 73.8908 212.186C73.9976 212.649 74.1231 213.15 74.1974 213.642C74.2761 214.257 74.3118 214.876 74.3043 215.496C74.3043 217.578 74.1882 219.724 73.3146 221.611C74.177 222.069 75.1275 222.337 76.1024 222.399C78.8004 222.742 81.5092 222.983 84.2288 223.122C85.0809 223.202 85.9401 223.158 86.7796 222.992C87.7766 222.724 88.6554 222.131 89.2772 221.308C89.899 220.485 90.2283 219.479 90.2132 218.449C90.3619 219.733 90.636 221.129 91.5699 222.019C92.5038 222.909 93.8652 223.043 95.1336 223.113C98.7136 223.302 102.303 223.202 105.867 222.812C106.094 222.801 106.318 222.75 106.526 222.659C107.214 222.316 107.251 221.37 107.195 220.61C107.093 219.186 106.986 217.763 106.814 216.349C106.669 215.448 106.594 214.536 106.591 213.623C106.662 212.684 106.818 211.753 107.056 210.841C107.679 207.949 108.171 204.995 107.962 202.033C107.879 201.311 107.85 200.585 107.874 199.859C107.995 198.222 108.859 196.665 108.696 195.037C108.232 190.253 107.855 185.343 106.517 180.726C106.275 179.901 105.969 179.015 105.249 178.542C104.319 177.921 103.014 178.246 101.95 177.852C101.451 177.62 100.976 177.339 100.533 177.012C99.5698 176.412 98.4661 176.073 97.3313 176.03C96.4764 175.997 95.5239 176.187 95.0082 176.873C94.7694 177.26 94.6113 177.69 94.5436 178.139C93.8698 180.967 93.08 183.762 92.2901 186.558L91.5328 189.238L89.5023 196.433C89.3025 197.198 89.4373 197.434 89.2329 198.157Z" fill="#3E6F00"/>
<path d="M101.113 170.086L146.057 217.211V221.208H126.017L92.2432 177.226" fill="#F1C0C0"/>
<path opacity="0.1" d="M101.113 170.086L146.057 217.211V221.208H126.017L92.2432 177.226" fill="black"/>
<path opacity="0.1" d="M92.9587 176.604L93.1027 176.655L126.305 217.211H146.057V221.208H126.017L92.2432 177.226L92.9587 176.604Z" fill="black"/>
<path d="M98.1303 177.597C96.5041 178.306 94.6966 179.215 94.2088 180.921C94.1125 181.22 94.0917 181.538 94.1484 181.848C94.2672 182.212 94.4938 182.531 94.7983 182.763C95.1027 182.996 95.4707 183.131 95.8536 183.151C96.6187 183.169 97.3794 183.03 98.0884 182.743L107.683 179.581C107.943 179.497 108.241 179.372 108.306 179.117C108.322 178.957 108.29 178.795 108.213 178.654C107.915 177.93 107.623 176.451 107 175.946C106.489 175.538 105.476 175.682 104.858 175.691C102.479 175.71 100.244 176.669 98.1303 177.597Z" fill="#3E6F00"/>
<path d="M106.684 179.956C108.3 179.952 109.907 180.2 111.446 180.694C112.992 181.194 114.361 182.128 115.391 183.382C115.691 183.733 115.904 184.149 116.014 184.597C116.106 185.061 117.621 185.339 117.287 185.654C118.304 185.492 118.063 185.969 119.094 185.96C120.126 185.951 121.241 185.686 121.859 184.866C122.288 184.192 122.479 183.394 122.402 182.599C122.416 182.049 122.311 181.502 122.096 180.995C121.631 180.021 120.562 179.497 119.577 179.048L111.279 175.26C110.798 175.005 110.281 174.822 109.746 174.718C109.295 174.675 108.841 174.686 108.394 174.75L104.635 175.181C105.457 175.712 106.126 176.447 106.577 177.315C107.027 178.182 107.243 179.152 107.204 180.128" fill="#3F3D56"/>
</svg>
