<svg width="335" height="296" viewBox="0 0 335 296" fill="none" xmlns="http://www.w3.org/2000/svg">
<path d="M295.501 49.2765C293.905 49.2765 292.309 48.8775 290.913 48.0795C252.611 28.329 219.497 19.95 179.799 19.95C140.301 19.95 102.798 29.3265 68.6859 48.0795C63.8983 50.673 57.9137 48.8775 55.121 44.0895C52.5276 39.3015 54.323 33.117 59.1107 30.5235C96.2149 10.374 136.91 0 179.799 0C222.29 0 259.394 9.3765 300.089 30.324C305.076 32.9175 306.871 38.9025 304.278 43.6905C302.483 47.2815 299.091 49.2765 295.501 49.2765ZM10.0373 154.014C8.04242 154.014 6.04757 153.416 4.25221 152.219C-0.335956 149.027 -1.33338 142.842 1.85838 138.254C21.6074 110.324 46.7426 88.3785 76.6654 73.017C139.304 40.698 219.497 40.4985 282.335 72.8175C312.257 88.179 337.393 109.924 357.142 137.655C360.333 142.044 359.336 148.428 354.748 151.62C350.16 154.812 343.976 153.814 340.784 149.226C322.83 124.089 300.089 104.339 273.158 90.573C215.906 61.2465 142.695 61.2465 85.6422 90.7725C58.5122 104.738 35.7709 124.688 17.8172 149.825C16.2213 152.618 13.229 154.014 10.0373 154.014ZM134.716 394.811C132.122 394.811 129.529 393.813 127.734 391.818C110.378 374.461 101.003 363.29 87.637 339.15C73.8726 314.612 66.6911 284.686 66.6911 252.567C66.6911 193.316 117.36 145.037 179.6 145.037C241.839 145.037 292.508 193.316 292.508 252.567C292.508 258.153 288.12 262.542 282.534 262.542C276.949 262.542 272.56 258.153 272.56 252.567C272.56 204.288 230.867 164.987 179.6 164.987C128.332 164.987 86.6396 204.288 86.6396 252.567C86.6396 281.295 93.0232 307.829 105.192 329.375C117.959 352.317 126.736 362.093 142.097 377.654C145.887 381.644 145.887 387.828 142.097 391.818C139.902 393.813 137.309 394.811 134.716 394.811ZM277.746 357.903C254.008 357.903 233.062 351.918 215.906 340.147C186.183 319.998 168.429 287.28 168.429 252.567C168.429 246.981 172.817 242.592 178.403 242.592C183.988 242.592 188.377 246.981 188.377 252.567C188.377 280.697 202.74 307.23 227.077 323.589C241.241 333.165 257.798 337.754 277.746 337.754C282.534 337.754 290.514 337.155 298.493 335.759C303.879 334.761 309.066 338.352 310.063 343.938C311.061 349.325 307.47 354.512 301.884 355.509C290.514 357.704 280.539 357.903 277.746 357.903ZM237.65 399C236.852 399 235.855 398.801 235.057 398.601C203.338 389.823 182.592 378.052 160.848 356.706C132.92 328.975 117.56 292.068 117.56 252.567C117.56 220.248 145.089 193.914 179.001 193.914C212.914 193.914 240.443 220.248 240.443 252.567C240.443 273.914 258.995 291.27 281.936 291.27C304.876 291.27 323.429 273.914 323.429 252.567C323.429 177.355 258.596 116.309 178.802 116.309C122.148 116.309 70.2818 147.829 46.942 196.707C39.1621 212.867 35.1724 231.819 35.1724 252.567C35.1724 268.128 36.5688 292.667 48.5379 324.587C50.5328 329.774 47.9395 335.559 42.7529 337.355C37.5662 339.35 31.7812 336.557 29.9858 331.569C20.211 305.435 15.4234 279.5 15.4234 252.567C15.4234 228.627 20.0115 206.882 28.9884 187.929C55.5199 132.269 114.368 96.159 178.802 96.159C269.568 96.159 343.377 166.184 343.377 252.368C343.377 284.686 315.848 311.021 281.936 311.021C248.023 311.021 220.494 284.686 220.494 252.368C220.494 231.021 201.942 213.665 179.001 213.665C156.06 213.665 137.508 231.021 137.508 252.368C137.508 286.482 150.674 318.402 174.812 342.342C193.763 361.095 211.916 371.469 240.044 379.25C245.43 380.646 248.422 386.232 247.026 391.419C246.028 396.008 241.839 399 237.65 399Z" fill="#3E6F00"/>
</svg>
